<svg width="91" height="18" viewBox="0 0 91 18" fill="none" xmlns="http://www.w3.org/2000/svg">
<path d="M88.1239 9.35995C87.464 9.19323 86.7739 9.18674 86.111 9.34097C85.5697 9.47852 85.0895 9.79185 84.7456 10.2318C84.4017 10.6718 84.2137 11.2135 84.2109 11.772C84.1419 13.513 84.1639 15.257 84.1479 16.999C84.1479 17.199 84.1479 17.3989 84.1479 17.6259H80.5669V5.80395H84.033V7.22897C84.292 6.82542 84.6367 6.48387 85.0427 6.2286C85.4487 5.97333 85.906 5.81058 86.382 5.75195C86.9614 5.7101 87.5432 5.71445 88.1219 5.76495L88.1239 9.35995Z" fill="#008D71"/>
<path d="M27.8229 0.677991C28.0229 0.677991 28.1809 0.677991 28.3389 0.677991C30.5749 0.697991 32.8169 0.614011 35.0389 0.767011C36.0568 0.778744 37.0393 1.1421 37.8199 1.79548C38.6005 2.44887 39.1311 3.35207 39.3219 4.352C39.5287 5.2282 39.424 6.14905 39.0258 6.95649C38.6277 7.76394 37.9609 8.4076 37.1399 8.77699C37.1076 8.7929 37.0777 8.81308 37.0509 8.83699C37.58 9.10539 38.0867 9.41608 38.5659 9.766C39.2991 10.4449 39.7756 11.356 39.9148 12.3455C40.054 13.335 39.8474 14.3422 39.3299 15.197C38.9117 15.9397 38.3018 16.5565 37.5639 16.9831C36.826 17.4097 35.9872 17.6303 35.1349 17.622C32.7419 17.706 30.3439 17.649 27.9479 17.652C27.9031 17.6448 27.8595 17.632 27.8179 17.614L27.8229 0.677991ZM31.4859 14.578C32.2129 14.578 32.9019 14.578 33.5859 14.578C33.853 14.5821 34.12 14.5711 34.3859 14.545C34.8548 14.5164 35.2973 14.3178 35.6305 13.9865C35.9636 13.6552 36.1646 13.2138 36.1959 12.745C36.2525 12.2964 36.1398 11.8429 35.8798 11.473C35.6198 11.1031 35.2312 10.8435 34.7899 10.745C33.7119 10.581 32.6059 10.59 31.4849 10.523L31.4859 14.578ZM31.4859 7.47801C32.2449 7.47801 32.9739 7.49701 33.7019 7.46901C34.0199 7.45253 34.3335 7.38745 34.6319 7.27601C34.9739 7.15439 35.2663 6.92335 35.4637 6.61873C35.6611 6.3141 35.7526 5.95289 35.7239 5.59102C35.7494 5.21927 35.6416 4.85056 35.4199 4.5511C35.1981 4.25164 34.8769 4.04103 34.5139 3.95701C33.5269 3.79701 32.5139 3.79801 31.4859 3.72801V7.47801Z" fill="#008D71"/>
<path d="M52.4931 17.644H49.2981L49.1721 16.47C48.7973 16.8167 48.4016 17.14 47.9871 17.438C46.5771 18.338 43.5281 18.311 42.2301 16.203C41.929 15.7241 41.7505 15.1784 41.7104 14.6141C41.6702 14.0498 41.7696 13.4844 41.9998 12.9676C42.23 12.4509 42.5839 11.9988 43.0302 11.6513C43.4766 11.3037 44.0017 11.0715 44.5591 10.975C45.6281 10.717 46.7301 10.591 47.8161 10.405C47.9081 10.389 47.9991 10.372 48.0911 10.358C48.2658 10.3565 48.4352 10.2985 48.5742 10.1927C48.7132 10.0869 48.8142 9.93895 48.8621 9.77099C48.9121 9.58986 48.911 9.39842 48.859 9.21786C48.8069 9.0373 48.7059 8.87466 48.5671 8.74798C48.2907 8.49482 47.9509 8.32133 47.5837 8.24596C47.2166 8.1706 46.8358 8.19619 46.4821 8.32C46.1565 8.39854 45.8591 8.56583 45.6229 8.80328C45.3867 9.04072 45.2209 9.33901 45.1441 9.665C45.1281 9.715 45.1311 9.77098 45.1181 9.82198C45.1004 9.87103 45.0793 9.91882 45.0551 9.96499C44.5421 9.86499 44.0251 9.765 43.5081 9.665C42.9911 9.565 42.4971 9.45599 41.9621 9.34399C42.0259 8.57987 42.3261 7.85462 42.8211 7.26901C43.5349 6.39442 44.5347 5.80012 45.6441 5.591C47.0145 5.2763 48.447 5.36805 49.7661 5.855C50.5489 6.12458 51.2256 6.63628 51.6982 7.31603C52.1709 7.99578 52.415 8.80829 52.3951 9.63598C52.4541 11.284 52.4051 12.936 52.4191 14.586C52.4291 15.593 52.4671 16.602 52.4931 17.644ZM48.8831 12.468C48.4601 12.531 48.0631 12.568 47.6761 12.653C47.0543 12.7693 46.4407 12.9256 45.8391 13.121C45.3901 13.282 45.2821 13.721 45.2911 14.18C45.2855 14.3875 45.3372 14.5925 45.4403 14.7726C45.5435 14.9527 45.6943 15.1009 45.8761 15.201C46.3358 15.3951 46.8472 15.4297 47.3289 15.2994C47.8106 15.1691 48.2349 14.8814 48.5341 14.482C48.8688 13.8677 48.9915 13.1601 48.8831 12.469V12.468Z" fill="#008D71"/>
<path d="M77.5087 17.639H74.3087C74.2677 17.239 74.2277 16.845 74.1837 16.411C74.1275 16.4479 74.0758 16.4912 74.0297 16.54C72.6847 18.474 69.1117 18.409 67.6127 16.698C67.2286 16.276 66.9562 15.7648 66.8201 15.2107C66.6839 14.6566 66.6884 14.0773 66.8332 13.5254C66.978 12.9735 67.2585 12.4666 67.6491 12.0507C68.0396 11.6348 68.528 11.3231 69.0697 11.144C70.1354 10.8656 71.2157 10.6466 72.3057 10.488C72.5797 10.435 72.8587 10.407 73.1317 10.35C73.306 10.3338 73.4715 10.2664 73.6076 10.1563C73.7437 10.0463 73.8442 9.89848 73.8966 9.73148C73.9489 9.56449 73.9508 9.38576 73.9019 9.21772C73.853 9.04968 73.7555 8.89985 73.6217 8.78703C73.3592 8.52924 73.0315 8.34781 72.6737 8.26218C72.3158 8.17656 71.9415 8.18997 71.5907 8.301C71.2549 8.36383 70.9438 8.52097 70.694 8.75401C70.4441 8.98704 70.2657 9.28636 70.1797 9.61701C70.1457 9.71701 70.1297 9.81702 70.0937 9.97602L66.9707 9.34702C67.0303 8.72184 67.2388 8.12003 67.5787 7.59199C67.9187 7.06395 68.3802 6.62503 68.9247 6.31202C69.8756 5.73809 70.9572 5.41631 72.0671 5.37711C73.1771 5.33792 74.2787 5.5826 75.2677 6.08802C75.9158 6.38769 76.4626 6.86966 76.8413 7.47508C77.2199 8.08049 77.414 8.7831 77.3997 9.49702C77.4637 11.078 77.4207 12.664 77.4367 14.248C77.4527 15.36 77.4847 16.478 77.5087 17.639ZM73.9637 12.457C73.1637 12.582 72.4637 12.67 71.7767 12.806C71.44 12.8722 71.1146 12.9867 70.8107 13.146C70.6254 13.2547 70.478 13.4178 70.3886 13.6132C70.2991 13.8085 70.2719 14.0267 70.3107 14.238C70.3136 14.4458 70.3747 14.6487 70.4869 14.8236C70.5991 14.9986 70.758 15.1387 70.9457 15.228C71.2166 15.3474 71.5097 15.4082 71.8057 15.4064C72.1018 15.4046 72.3941 15.3402 72.6635 15.2174C72.9329 15.0947 73.1734 14.9163 73.369 14.6941C73.5647 14.4719 73.7111 14.2108 73.7987 13.928C73.8872 13.443 73.9423 12.9526 73.9637 12.46V12.457Z" fill="#008D71"/>
<path d="M54.9467 5.79199H64.6207C64.6267 5.91799 64.6386 6.04399 64.6386 6.17099C64.6386 6.80999 64.6006 7.45198 64.6516 8.08698C64.6691 8.30848 64.6346 8.53102 64.5507 8.73679C64.4669 8.94255 64.336 9.12586 64.1686 9.272C62.5966 10.899 61.0456 12.546 59.4876 14.186C59.3996 14.279 59.3187 14.378 59.1807 14.537H64.6997V17.637H54.7996C54.7896 17.487 54.7736 17.346 54.7736 17.205C54.7736 16.473 54.7956 15.74 54.7636 15.005C54.7535 14.8217 54.7841 14.6385 54.8533 14.4686C54.9224 14.2986 55.0284 14.1461 55.1636 14.022C56.6896 12.422 58.1997 10.813 59.7147 9.20499C59.7947 9.11999 59.8697 9.03 59.9937 8.888H54.9406L54.9467 5.79199Z" fill="#008D71"/>
<path d="M11 1L13.028 1.03726C14.7329 1.06735 16.4448 0.964165 18.1409 1.15905C19.264 1.25307 20.3341 1.8892 21.1841 2.96798C22.0341 4.04676 22.616 5.50741 22.8389 7.12168C23.02 8.15269 23.0488 9.22842 22.9233 10.277C22.7978 11.3256 22.521 12.3229 22.1112 13.2023C21.7015 14.0818 21.1683 14.8231 20.5472 15.3768C19.9262 15.9305 19.2317 16.2838 18.5099 16.4131C17.3983 16.5983 16.2784 16.6543 15.1607 16.5807C14.776 16.5807 14.685 16.7584 14.6889 17.2972C14.6889 14.8569 14.7075 19.7333 14.6889 17.2972L15.1607 16.5807L11 17.2972V1ZM14.7506 11.9895C15.2106 11.9895 15.6314 12.0139 16.0405 11.9895C16.6248 11.9895 17.208 11.9161 17.7837 11.7702C18.2158 11.6315 18.6015 11.2766 18.8742 10.7667C19.147 10.2567 19.2899 9.62348 19.2782 8.97596C19.3181 8.35232 19.2155 7.72691 18.9865 7.19786C18.7574 6.66881 18.4149 6.26604 18.0127 6.05268C16.944 5.69517 15.8436 5.58444 14.7515 5.72452L14.7506 11.9895Z" fill="#0D1136"/>
<path d="M17.9976 9.06146C17.9979 10.1191 17.7864 11.1662 17.3756 12.1411C16.9648 13.116 16.3629 13.9991 15.6054 14.7385C14.8478 15.4779 13.9499 16.0586 12.9643 16.4466C11.9788 16.8346 10.9255 17.0221 9.86632 16.9979C7.75842 16.9379 5.75713 16.0593 4.28809 14.5489C2.81905 13.0386 1.99816 11.0156 2 8.91037C2.04723 6.80577 2.91418 4.80231 4.41681 3.32545C5.91945 1.84858 7.93946 1.01454 10.048 1.00031C11.1052 0.990872 12.1535 1.19393 13.1305 1.59728C14.1074 2.00063 14.9931 2.59604 15.7349 3.34817C16.4766 4.10029 17.0591 4.99371 17.4479 5.97524C17.8366 6.95677 18.0236 8.00631 17.9976 9.06146Z" fill="#008D71"/>
<path d="M17.8308 5.89154L13.5198 7.20535C13.1135 6.56742 12.6373 5.97833 12.1002 5.44932C11.5977 5.07982 11.0124 4.84308 10.3973 4.76042C9.7821 4.67776 9.15636 4.75179 8.5764 4.97583C7.99645 5.19987 7.4805 5.56684 7.07508 6.04375C6.66966 6.52066 6.38749 7.0925 6.25401 7.70771C6.09087 8.54515 6.088 9.40661 6.24556 10.2451C6.39294 11.0089 6.77595 11.7051 7.33912 12.2331C7.90229 12.7611 8.6164 13.0934 9.37801 13.1819C10.1759 13.3603 11.01 13.2517 11.7377 12.8747C12.4655 12.4978 13.0416 11.8758 13.3676 11.1153C13.4423 10.9722 13.7101 10.7919 13.8328 10.8291C15.1988 11.2241 16.555 11.6577 18 12.1085C17.8886 12.4933 17.7569 12.8717 17.6053 13.242C16.9747 14.6907 15.9338 15.916 14.615 16.7621C13.2963 17.6083 11.7594 18.0369 10.1999 17.9935C9.01815 18.0391 7.83936 17.8442 6.73297 17.4202C5.62658 16.9962 4.61496 16.3517 3.7577 15.5247C2.90044 14.6977 2.21487 13.7049 1.74139 12.6047C1.26791 11.5046 1.01608 10.3194 1.00075 9.11892C0.98541 7.91845 1.20688 6.72704 1.6521 5.61481C2.09732 4.50257 2.7573 3.49202 3.59314 2.64271C4.42899 1.7934 5.4238 1.1225 6.51899 0.669525C7.61418 0.216546 8.78759 -0.00936999 9.9701 0.00512849C11.2123 -0.0394021 12.448 0.206549 13.5817 0.723945C14.7154 1.24134 15.7168 2.01637 16.5085 2.98915C17.1763 3.83236 17.6303 4.82889 17.8308 5.89154Z" fill="#0D1136"/>
</svg>
